<svg width="181" height="177" viewBox="0 0 181 177" fill="none" xmlns="http://www.w3.org/2000/svg">
<path d="M95.74 130.44C95.74 130.44 162.48 56.93 141.65 4.85999C141.82 4.68999 142.94 -1.12057e-05 145.68 4.85999C145.47 5.37999 174.11 52.59 95.74 130.44Z" fill="url(#paint0_linear_35_34)"/>
<path d="M85.14 132.04C85.14 132.04 18.4 58.53 39.23 6.46003C39.06 6.29003 37.94 1.60003 35.2 6.46003C35.41 6.98003 6.77001 54.2 85.14 132.04Z" fill="url(#paint1_linear_35_34)"/>
<path d="M84.47 139.88C82.47 137.61 80.5699 135.92 79.0899 134.72C77.2699 133.25 75.43 131.76 72.63 130.46C70.27 129.37 68.1599 128.83 66.6799 128.55C65.0799 128.09 62.94 127.42 60.44 126.51C58.24 125.7 56.6899 125.14 54.6499 124.14C53.3599 123.51 51.0699 122.3 48.4199 120.43C46.5299 119.09 44.9499 117.76 43.6699 116.57C40.0699 112.33 38.13 110.32 37.85 110.54C37.57 110.75 38.82 113 41.6 117.31C43 119 44.7599 120.84 46.9299 122.63C52.0999 126.89 57.37 129.04 61.07 130.16C61.06 130.16 61.0499 130.17 61.0499 130.17C61.0199 130.35 67.0299 131.57 67.9899 131.77C71.4799 132.52 76.74 134.49 84.47 139.88Z" fill="url(#paint2_linear_35_34)"/>
<path d="M49.3099 110.39C49.3099 110.39 11.2999 92.69 6.60986 84.35C6.61986 84.18 23.2799 104.83 49.3099 110.39Z" fill="url(#paint3_linear_35_34)"/>
<path d="M72.2 139.2C69.77 139.69 67.06 140 64.13 139.99C49.99 139.93 39.52 132.32 34.92 128.44C30.66 125.5 26.26 122.54 21.72 119.6C14.34 114.81 7.08 110.36 0 106.22C0.99 107.54 2.41999 109.38 4.20999 111.51C6.23999 113.92 8.47 116.58 11.63 119.53C14.48 122.2 16.86 123.94 18.62 125.24C24.37 129.45 29.63 132.24 33.15 133.93C37.39 135.96 42.1 138.2 48.14 139.57C52.8 140.63 61.25 141.82 72.2 139.2Z" fill="url(#paint4_linear_35_34)"/>
<path d="M63.8899 113.88C60.4999 110.98 56.9899 107.79 53.4299 104.29C48.7799 99.71 44.6499 95.21 40.9999 90.9C38.4199 88.22 36.1499 86.14 34.4699 84.67C32.6299 83.06 30.8999 81.65 27.4999 78.88C26.0399 77.7 24.8299 76.72 23.9699 76.04C22.2699 74.7 20.4899 73.15 18.6799 71.35C14.9499 67.63 12.1799 63.89 10.1399 60.63C9.0699 58.62 8.49991 57.63 8.42991 57.67C8.27991 57.74 10.1099 61.86 13.8999 70.03C13.8999 69.62 22.9299 91.66 63.8899 113.88Z" fill="url(#paint5_linear_35_34)"/>
<path d="M89.58 106.22C89.58 106.22 111.28 84.18 117.7 38.87C117.87 39.22 118.4 77.7 98.95 107.95C98.6 108.3 90.27 119.93 89.58 126.7C89.17 124.77 88.55 122.5 87.59 120.03C86.55 117.34 85.47 115.35 84.92 114.39C83.95 112.68 82.64 110.67 80.91 108.55C80.19 107.59 78.7 105.55 77.02 102.86C59.17 74.29 61.36 38.45 61.41 38.46C61.44 38.46 61.46 38.6 61.46 38.87C61.46 39.05 65.63 84.87 89.58 106.22Z" fill="url(#paint6_linear_35_34)"/>
<path d="M90.1899 97.65C93.5199 92.86 99.3999 83.07 101.38 69.23C103.35 55.43 100.47 44.4 98.6099 38.88C98.6099 39.05 88.6999 17.88 89.3999 0C89.7699 4.55 89.8399 10.06 89.1399 16.25C88.1999 24.59 86.1499 31.53 84.1699 36.75C82.8399 40.26 83.0199 40.33 82.4399 42.35C78.3199 56.72 79.2799 65.98 79.2799 65.98C79.5599 80.25 87.4699 93.41 90.1899 97.65Z" fill="url(#paint7_linear_35_34)"/>
<path d="M62.7328 145.853C63.6241 145.891 64.4302 145.91 65.1509 145.91C65.8526 145.91 66.7961 145.891 67.9815 145.853L68.0383 146.465L66.2461 147.02C66.028 147.096 65.9142 147.257 65.9047 147.503C65.8858 148.129 65.8763 148.916 65.8763 149.865V161.4C65.8763 162.519 65.8858 163.463 65.9047 164.231C65.9142 164.449 66.047 164.596 66.303 164.672L68.0099 165.198L68.0383 165.81C66.7866 165.781 65.5918 165.767 64.4539 165.767C63.3349 165.767 62.2302 165.781 61.1396 165.81L61.0828 165.198L62.7185 164.7C62.9461 164.634 63.0646 164.468 63.0741 164.202C63.0931 163.453 63.1026 162.519 63.1026 161.4V149.082L56.0474 165.767L55.0091 165.881L47.9112 149.082V161.4C47.9112 162.519 47.9207 163.453 47.9397 164.202C47.9491 164.468 48.0724 164.634 48.3095 164.7L49.9026 165.198L49.931 165.81C48.8026 165.781 47.8591 165.767 47.1004 165.767C46.3608 165.767 45.3793 165.781 44.156 165.81L44.0992 165.198L45.8487 164.672C46.0953 164.596 46.2233 164.449 46.2328 164.231C46.2517 163.463 46.2612 162.519 46.2612 161.4V149.865C46.2612 148.916 46.2517 148.129 46.2328 147.503C46.2233 147.257 46.1095 147.096 45.8914 147.02L44.1276 146.465L44.0992 145.853C45.3224 145.891 46.2897 145.91 47.0009 145.91C47.8164 145.91 48.6651 145.891 49.547 145.853L56.147 161.457L62.7328 145.853ZM73.9698 155.568C73.9698 158.66 74.5957 161.03 75.8474 162.68C77.0991 164.321 78.934 165.141 81.3521 165.141C83.7323 165.141 85.4866 164.397 86.6151 162.908C87.753 161.41 88.3219 159.063 88.3219 155.867C88.3219 152.871 87.7198 150.566 86.5155 148.954C85.3112 147.342 83.4526 146.536 80.9396 146.536C78.5026 146.536 76.7293 147.285 75.6198 148.784C74.5198 150.272 73.9698 152.534 73.9698 155.568ZM91.4513 155.384C91.4513 158.665 90.5172 161.305 88.6491 163.306C86.7905 165.298 84.1875 166.293 80.8401 166.293C77.6633 166.293 75.2026 165.374 73.4577 163.534C71.7224 161.685 70.8547 159.186 70.8547 156.038C70.8547 152.757 71.7888 150.163 73.6569 148.257C75.5345 146.342 78.1327 145.384 81.4517 145.384C84.6379 145.384 87.0987 146.28 88.834 148.072C90.5788 149.855 91.4513 152.292 91.4513 155.384ZM109.63 150.818L109.061 150.903L108.022 147.162C106.846 146.868 105.78 146.721 104.822 146.721C102.499 146.721 100.673 147.532 99.3456 149.153C98.0181 150.775 97.3543 152.88 97.3543 155.469C97.3543 158.238 98.1129 160.447 99.6301 162.097C101.147 163.747 103.248 164.572 105.931 164.572C107.439 164.572 109.028 164.283 110.696 163.705L110.853 164.345C108.985 165.634 106.87 166.279 104.509 166.279C101.446 166.279 98.9758 165.345 97.0982 163.477C95.2206 161.609 94.2819 159.148 94.2819 156.095C94.2819 152.842 95.3155 150.268 97.3827 148.371C99.45 146.474 102.153 145.526 105.49 145.526C107.093 145.526 108.734 145.721 110.412 146.109L110.512 146.223L109.63 150.818ZM118.193 149.808V161.4C118.193 161.969 118.193 162.486 118.193 162.951C118.202 163.415 118.212 163.837 118.221 164.217C118.231 164.463 118.354 164.624 118.591 164.7L120.17 165.198L120.212 165.81C119.084 165.781 117.956 165.767 116.827 165.767C115.68 165.767 114.504 165.781 113.3 165.81L113.243 165.198L114.992 164.672C115.239 164.596 115.367 164.449 115.376 164.231C115.386 163.852 115.39 163.43 115.39 162.965C115.4 162.491 115.405 161.969 115.405 161.4V149.865C115.405 149.381 115.4 148.945 115.39 148.556C115.39 148.167 115.386 147.816 115.376 147.503C115.367 147.257 115.253 147.096 115.035 147.02L113.271 146.465L113.243 145.853C114.466 145.891 115.642 145.91 116.77 145.91C117.899 145.91 119.022 145.891 120.141 145.853L120.212 146.465L118.591 146.963C118.363 147.02 118.24 147.167 118.221 147.404C118.212 147.745 118.202 148.115 118.193 148.513C118.193 148.912 118.193 149.343 118.193 149.808ZM118.562 155.696L124.295 149.31C124.74 148.807 125.101 148.385 125.376 148.044C125.651 147.693 125.788 147.413 125.788 147.205C125.788 147.015 125.66 146.887 125.404 146.821L124.238 146.508L124.209 145.853C125.148 145.891 126.196 145.91 127.353 145.91C128.462 145.91 129.506 145.891 130.482 145.853L130.539 146.465L129.102 146.92C128.666 147.062 128.287 147.281 127.965 147.574C127.652 147.868 127.315 148.215 126.955 148.613L121.265 154.871L127.737 163.406C128.012 163.766 128.282 164.06 128.548 164.288C128.813 164.506 129.159 164.677 129.586 164.8L130.881 165.198L130.909 165.81C130.112 165.781 129.102 165.767 127.879 165.767C127.557 165.767 127.23 165.767 126.898 165.767C126.566 165.777 126.234 165.786 125.902 165.796C125.57 165.113 124.693 163.828 123.271 161.941L118.562 155.696ZM137.395 161.4C137.395 161.969 137.395 162.486 137.395 162.951C137.405 163.415 137.414 163.837 137.424 164.217C137.433 164.454 137.599 164.615 137.921 164.7L139.529 165.198L139.557 165.81C138.334 165.781 137.158 165.767 136.03 165.767C134.882 165.767 133.706 165.781 132.502 165.81L132.445 165.198L134.195 164.672C134.432 164.605 134.56 164.459 134.579 164.231C134.588 163.852 134.593 163.43 134.593 162.965C134.602 162.491 134.607 161.969 134.607 161.4V149.865C134.607 149.381 134.602 148.945 134.593 148.556C134.593 148.167 134.588 147.816 134.579 147.503C134.569 147.257 134.456 147.096 134.237 147.02L132.474 146.465L132.445 145.853C133.668 145.891 134.844 145.91 135.973 145.91C137.111 145.91 138.287 145.891 139.5 145.853L139.557 146.465L137.793 146.991C137.566 147.048 137.443 147.195 137.424 147.432C137.414 147.764 137.405 148.129 137.395 148.527C137.395 148.916 137.395 149.343 137.395 149.808V161.4Z" fill="#7F4844"/>
<path d="M62.7328 145.853C63.6241 145.891 64.4302 145.91 65.1509 145.91C65.8526 145.91 66.7961 145.891 67.9815 145.853L68.0383 146.465L66.2461 147.02C66.028 147.096 65.9142 147.257 65.9047 147.503C65.8858 148.129 65.8763 148.916 65.8763 149.865V161.4C65.8763 162.519 65.8858 163.463 65.9047 164.231C65.9142 164.449 66.047 164.596 66.303 164.672L68.0099 165.198L68.0383 165.81C66.7866 165.781 65.5918 165.767 64.4539 165.767C63.3349 165.767 62.2302 165.781 61.1396 165.81L61.0828 165.198L62.7185 164.7C62.9461 164.634 63.0646 164.468 63.0741 164.202C63.0931 163.453 63.1026 162.519 63.1026 161.4V149.082L56.0474 165.767L55.0091 165.881L47.9112 149.082V161.4C47.9112 162.519 47.9207 163.453 47.9397 164.202C47.9491 164.468 48.0724 164.634 48.3095 164.7L49.9026 165.198L49.931 165.81C48.8026 165.781 47.8591 165.767 47.1004 165.767C46.3608 165.767 45.3793 165.781 44.156 165.81L44.0992 165.198L45.8487 164.672C46.0953 164.596 46.2233 164.449 46.2328 164.231C46.2517 163.463 46.2612 162.519 46.2612 161.4V149.865C46.2612 148.916 46.2517 148.129 46.2328 147.503C46.2233 147.257 46.1095 147.096 45.8914 147.02L44.1276 146.465L44.0992 145.853C45.3224 145.891 46.2897 145.91 47.0009 145.91C47.8164 145.91 48.6651 145.891 49.547 145.853L56.147 161.457L62.7328 145.853ZM73.9698 155.568C73.9698 158.66 74.5957 161.03 75.8474 162.68C77.0991 164.321 78.934 165.141 81.3521 165.141C83.7323 165.141 85.4866 164.397 86.6151 162.908C87.753 161.41 88.3219 159.063 88.3219 155.867C88.3219 152.871 87.7198 150.566 86.5155 148.954C85.3112 147.342 83.4526 146.536 80.9396 146.536C78.5026 146.536 76.7293 147.285 75.6198 148.784C74.5198 150.272 73.9698 152.534 73.9698 155.568ZM91.4513 155.384C91.4513 158.665 90.5172 161.305 88.6491 163.306C86.7905 165.298 84.1875 166.293 80.8401 166.293C77.6633 166.293 75.2026 165.374 73.4577 163.534C71.7224 161.685 70.8547 159.186 70.8547 156.038C70.8547 152.757 71.7888 150.163 73.6569 148.257C75.5345 146.342 78.1327 145.384 81.4517 145.384C84.6379 145.384 87.0987 146.28 88.834 148.072C90.5788 149.855 91.4513 152.292 91.4513 155.384ZM109.63 150.818L109.061 150.903L108.022 147.162C106.846 146.868 105.78 146.721 104.822 146.721C102.499 146.721 100.673 147.532 99.3456 149.153C98.0181 150.775 97.3543 152.88 97.3543 155.469C97.3543 158.238 98.1129 160.447 99.6301 162.097C101.147 163.747 103.248 164.572 105.931 164.572C107.439 164.572 109.028 164.283 110.696 163.705L110.853 164.345C108.985 165.634 106.87 166.279 104.509 166.279C101.446 166.279 98.9758 165.345 97.0982 163.477C95.2206 161.609 94.2819 159.148 94.2819 156.095C94.2819 152.842 95.3155 150.268 97.3827 148.371C99.45 146.474 102.153 145.526 105.49 145.526C107.093 145.526 108.734 145.721 110.412 146.109L110.512 146.223L109.63 150.818ZM118.193 149.808V161.4C118.193 161.969 118.193 162.486 118.193 162.951C118.202 163.415 118.212 163.837 118.221 164.217C118.231 164.463 118.354 164.624 118.591 164.7L120.17 165.198L120.212 165.81C119.084 165.781 117.956 165.767 116.827 165.767C115.68 165.767 114.504 165.781 113.3 165.81L113.243 165.198L114.992 164.672C115.239 164.596 115.367 164.449 115.376 164.231C115.386 163.852 115.39 163.43 115.39 162.965C115.4 162.491 115.405 161.969 115.405 161.4V149.865C115.405 149.381 115.4 148.945 115.39 148.556C115.39 148.167 115.386 147.816 115.376 147.503C115.367 147.257 115.253 147.096 115.035 147.02L113.271 146.465L113.243 145.853C114.466 145.891 115.642 145.91 116.77 145.91C117.899 145.91 119.022 145.891 120.141 145.853L120.212 146.465L118.591 146.963C118.363 147.02 118.24 147.167 118.221 147.404C118.212 147.745 118.202 148.115 118.193 148.513C118.193 148.912 118.193 149.343 118.193 149.808ZM118.562 155.696L124.295 149.31C124.74 148.807 125.101 148.385 125.376 148.044C125.651 147.693 125.788 147.413 125.788 147.205C125.788 147.015 125.66 146.887 125.404 146.821L124.238 146.508L124.209 145.853C125.148 145.891 126.196 145.91 127.353 145.91C128.462 145.91 129.506 145.891 130.482 145.853L130.539 146.465L129.102 146.92C128.666 147.062 128.287 147.281 127.965 147.574C127.652 147.868 127.315 148.215 126.955 148.613L121.265 154.871L127.737 163.406C128.012 163.766 128.282 164.06 128.548 164.288C128.813 164.506 129.159 164.677 129.586 164.8L130.881 165.198L130.909 165.81C130.112 165.781 129.102 165.767 127.879 165.767C127.557 165.767 127.23 165.767 126.898 165.767C126.566 165.777 126.234 165.786 125.902 165.796C125.57 165.113 124.693 163.828 123.271 161.941L118.562 155.696ZM137.395 161.4C137.395 161.969 137.395 162.486 137.395 162.951C137.405 163.415 137.414 163.837 137.424 164.217C137.433 164.454 137.599 164.615 137.921 164.7L139.529 165.198L139.557 165.81C138.334 165.781 137.158 165.767 136.03 165.767C134.882 165.767 133.706 165.781 132.502 165.81L132.445 165.198L134.195 164.672C134.432 164.605 134.56 164.459 134.579 164.231C134.588 163.852 134.593 163.43 134.593 162.965C134.602 162.491 134.607 161.969 134.607 161.4V149.865C134.607 149.381 134.602 148.945 134.593 148.556C134.593 148.167 134.588 147.816 134.579 147.503C134.569 147.257 134.456 147.096 134.237 147.02L132.474 146.465L132.445 145.853C133.668 145.891 134.844 145.91 135.973 145.91C137.111 145.91 138.287 145.891 139.5 145.853L139.557 146.465L137.793 146.991C137.566 147.048 137.443 147.195 137.424 147.432C137.414 147.764 137.405 148.129 137.395 148.527C137.395 148.916 137.395 149.343 137.395 149.808V161.4Z" fill="#C13317"/>
<path d="M131.93 109.87C131.93 109.87 169.94 92.17 174.63 83.83C174.63 83.66 157.97 104.31 131.93 109.87Z" fill="url(#paint8_linear_35_34)"/>
<path d="M119.84 112.46C123.23 109.56 126.74 106.37 130.3 102.87C134.95 98.29 139.08 93.79 142.73 89.48C145.31 86.8 147.58 84.72 149.26 83.25C151.1 81.64 152.83 80.23 156.23 77.46C157.69 76.28 158.9 75.3 159.76 74.62C161.46 73.28 163.24 71.73 165.05 69.93C168.78 66.21 171.55 62.47 173.59 59.21C174.66 57.2 175.23 56.21 175.3 56.25C175.45 56.32 173.62 60.44 169.83 68.61C169.83 68.19 160.8 90.24 119.84 112.46Z" fill="url(#paint9_linear_35_34)"/>
<path d="M94.4099 139.88C96.4099 137.61 98.3099 135.92 99.7899 134.72C101.61 133.25 103.45 131.76 106.25 130.46C108.61 129.37 110.72 128.83 112.2 128.55C113.8 128.09 115.94 127.42 118.44 126.51C120.64 125.7 122.19 125.14 124.23 124.14C125.52 123.51 127.81 122.3 130.46 120.43C132.35 119.09 133.93 117.76 135.21 116.57C138.81 112.33 140.75 110.32 141.03 110.54C141.31 110.75 140.06 113 137.28 117.31C135.88 119 134.12 120.84 131.95 122.63C126.78 126.89 121.51 129.04 117.81 130.16C117.82 130.16 117.83 130.17 117.83 130.17C117.86 130.35 111.85 131.57 110.89 131.77C107.4 132.52 102.14 134.49 94.4099 139.88Z" fill="url(#paint10_linear_35_34)"/>
<path d="M107.98 139.2C110.41 139.69 113.12 140 116.05 139.99C130.19 139.93 140.66 132.32 145.26 128.44C149.52 125.5 153.92 122.54 158.46 119.6C165.84 114.81 173.1 110.36 180.18 106.22C179.19 107.54 177.76 109.38 175.97 111.51C173.94 113.92 171.71 116.58 168.55 119.53C165.7 122.2 163.32 123.94 161.56 125.24C155.81 129.45 150.55 132.24 147.03 133.93C142.79 135.96 138.08 138.2 132.04 139.57C127.38 140.63 118.93 141.82 107.98 139.2Z" fill="url(#paint11_linear_35_34)"/>
<defs>
<linearGradient id="paint0_linear_35_34" x1="122.974" y1="66.1255" x2="122.123" y2="11.2569" gradientUnits="userSpaceOnUse">
<stop stop-color="#D88152"/>
<stop offset="0.0887" stop-color="#D47549"/>
<stop offset="0.2497" stop-color="#C95430"/>
<stop offset="0.3927" stop-color="#BE3217"/>
<stop offset="0.7133" stop-color="#BE3217"/>
</linearGradient>
<linearGradient id="paint1_linear_35_34" x1="47.9069" y1="61.6038" x2="28.8087" y2="10.1592" gradientUnits="userSpaceOnUse">
<stop stop-color="#D88152"/>
<stop offset="0.0887" stop-color="#D47549"/>
<stop offset="0.2497" stop-color="#C95430"/>
<stop offset="0.3927" stop-color="#BE3217"/>
<stop offset="0.7133" stop-color="#BE3217"/>
</linearGradient>
<linearGradient id="paint2_linear_35_34" x1="72.6585" y1="136.12" x2="35.5975" y2="107.524" gradientUnits="userSpaceOnUse">
<stop offset="0.1185" stop-color="#7A2015"/>
<stop offset="0.3559" stop-color="#994930"/>
<stop offset="0.5566" stop-color="#AE6543"/>
<stop offset="0.673" stop-color="#B66F4A"/>
</linearGradient>
<linearGradient id="paint3_linear_35_34" x1="13.7044" y1="87.867" x2="47.9299" y2="113.397" gradientUnits="userSpaceOnUse">
<stop offset="0.2934" stop-color="#7A2015"/>
<stop offset="0.7548" stop-color="#BB704A"/>
</linearGradient>
<linearGradient id="paint4_linear_35_34" x1="64.3273" y1="142.801" x2="0.553588" y2="108.94" gradientUnits="userSpaceOnUse">
<stop offset="0.5143" stop-color="#691B0F"/>
<stop offset="0.636" stop-color="#8C3327"/>
<stop offset="0.7553" stop-color="#A8473B"/>
<stop offset="0.8245" stop-color="#B24E42"/>
</linearGradient>
<linearGradient id="paint5_linear_35_34" x1="19.7263" y1="74.4284" x2="56.78" y2="111.75" gradientUnits="userSpaceOnUse">
<stop offset="0.2179" stop-color="#BB704A"/>
<stop offset="0.3188" stop-color="#B16442"/>
<stop offset="0.5021" stop-color="#97432C"/>
<stop offset="0.6693" stop-color="#7A2015"/>
</linearGradient>
<linearGradient id="paint6_linear_35_34" x1="90.6014" y1="81.7864" x2="92.1398" y2="138.712" gradientUnits="userSpaceOnUse">
<stop offset="0.0736" stop-color="#D88152"/>
<stop offset="0.1789" stop-color="#D47549"/>
<stop offset="0.3701" stop-color="#C95430"/>
<stop offset="0.5398" stop-color="#BE3217"/>
<stop offset="0.8298" stop-color="#BE3217"/>
</linearGradient>
<linearGradient id="paint7_linear_35_34" x1="90.304" y1="48.5636" x2="90.8536" y2="71.8375" gradientUnits="userSpaceOnUse">
<stop offset="0.2346" stop-color="#D88152"/>
<stop offset="0.5324" stop-color="#CC5C37"/>
<stop offset="0.8319" stop-color="#C23E20"/>
<stop offset="1" stop-color="#BE3217"/>
</linearGradient>
<linearGradient id="paint8_linear_35_34" x1="167.543" y1="87.3468" x2="133.317" y2="112.877" gradientUnits="userSpaceOnUse">
<stop offset="0.2934" stop-color="#7A2015"/>
<stop offset="0.7548" stop-color="#BB704A"/>
</linearGradient>
<linearGradient id="paint9_linear_35_34" x1="164.002" y1="73.0059" x2="126.948" y2="110.327" gradientUnits="userSpaceOnUse">
<stop offset="0.2179" stop-color="#BB704A"/>
<stop offset="0.3188" stop-color="#B16442"/>
<stop offset="0.5021" stop-color="#97432C"/>
<stop offset="0.6693" stop-color="#7A2015"/>
</linearGradient>
<linearGradient id="paint10_linear_35_34" x1="106.223" y1="136.12" x2="143.284" y2="107.524" gradientUnits="userSpaceOnUse">
<stop offset="0.1185" stop-color="#7A2015"/>
<stop offset="0.3559" stop-color="#994930"/>
<stop offset="0.5566" stop-color="#AE6543"/>
<stop offset="0.673" stop-color="#B66F4A"/>
</linearGradient>
<linearGradient id="paint11_linear_35_34" x1="115.855" y1="142.801" x2="179.629" y2="108.94" gradientUnits="userSpaceOnUse">
<stop offset="0.5143" stop-color="#691B0F"/>
<stop offset="0.636" stop-color="#8C3327"/>
<stop offset="0.7553" stop-color="#A8473B"/>
<stop offset="0.8245" stop-color="#B24E42"/>
</linearGradient>
</defs>
</svg>
